<?xml version="1.0" encoding="utf-8"?>
<!-- Generator: Adobe Illustrator 27.0.0, SVG Export Plug-In . SVG Version: 6.00 Build 0)  -->
<svg version="1.1" id="Слой_1" xmlns="http://www.w3.org/2000/svg" xmlns:xlink="http://www.w3.org/1999/xlink" x="0px" y="0px"
	 viewBox="0 0 180 180" style="enable-background:new 0 0 180 180;" xml:space="preserve">
<style type="text/css">
	.st0{fill:#068537;}
	.st1{fill:#C0C0BF;}
	.st2{fill-rule:evenodd;clip-rule:evenodd;fill:#068537;}
</style>
<path class="st0" d="M180,135l-90,45L0,135V45L90,0l90,45V135z"/>
<path class="st1" d="M166.2,127.5l-76.4,37.3l-76.4-37.3V52.8l76.4-37.3l76.4,37.3V127.5z"/>
<path class="st0" d="M124.4,47.2l16.4,49.2l3.6-40l10.4,5.4l-6,59.8l-11.6,5.4l-14.8-53l-8.6,64.2l-12.8,6.2L80.6,35l13.6-7.2
	l11.6,69.6l10.6-53.8L124.4,47.2z"/>
<path class="st2" d="M27.6,60.4l11.3-5.3l2.5,71.1L27.6,120V60.4z"/>
<path class="st2" d="M53.8,47.4l13-6L82,145.6l-16.1-7.3L53.8,47.4z"/>
<path class="st2" d="M39.4,81.2l18.8-2l2.4,16.2l-20.8-1.3L39.4,81.2z"/>
</svg>
