<?xml version="1.0" encoding="utf-8"?>
<!-- Generator: Adobe Illustrator 27.0.0, SVG Export Plug-In . SVG Version: 6.00 Build 0)  -->
<svg version="1.1" id="Слой_1" xmlns="http://www.w3.org/2000/svg" xmlns:xlink="http://www.w3.org/1999/xlink" x="0px" y="0px"
	 viewBox="0 0 192 192" style="enable-background:new 0 0 192 192;" xml:space="preserve">
<style type="text/css">
	.st0{fill:#068537;}
	.st1{fill:#C0C0BF;}
	.st2{fill-rule:evenodd;clip-rule:evenodd;fill:#068537;}
</style>
<path class="st0" d="M151,123.5L96,151l-55-27.5v-55L96,41l55,27.5V123.5z"/>
<path class="st1" d="M142.6,118.9l-46.7,22.8l-46.7-22.8V73.3l46.7-22.8l46.7,22.8V118.9z"/>
<path class="st0" d="M117,69.8l10,30.1l2.2-24.4l6.4,3.3l-3.7,36.5l-7.1,3.3l-9.1-32.3l-5.3,39.2l-7.8,3.8L90.2,62.4l8.3-4.4
	l7.1,42.5l6.5-32.9L117,69.8z"/>
<path class="st2" d="M57.9,77.9l6.9-3.2l1.5,43.4l-8.4-3.7V77.9z"/>
<path class="st2" d="M73.9,70l7.9-3.7l9.3,63.7l-9.8-4.5L73.9,70z"/>
<path class="st2" d="M65.1,90.6l11.5-1.2l1.5,9.9l-12.7-0.8L65.1,90.6z"/>
</svg>
