<?xml version="1.0" encoding="utf-8"?>
<!-- Generator: Adobe Illustrator 27.0.0, SVG Export Plug-In . SVG Version: 6.00 Build 0)  -->
<svg version="1.1"
	 id="svg2" xmlns:svg="http://www.w3.org/2000/svg" xmlns:inkscape="http://www.inkscape.org/namespaces/inkscape" xmlns:sodipodi="http://sodipodi.sourceforge.net/DTD/sodipodi-0.dtd" xmlns:rdf="http://www.w3.org/1999/02/22-rdf-syntax-ns#" xmlns:cc="http://creativecommons.org/ns#" xmlns:dc="http://purl.org/dc/elements/1.1/"
	 xmlns="http://www.w3.org/2000/svg" xmlns:xlink="http://www.w3.org/1999/xlink" x="0px" y="0px" viewBox="0 0 24 24"
	 style="enable-background:new 0 0 24 24;" xml:space="preserve">
<sodipodi:namedview  bordercolor="#666666" borderopacity="1" gridtolerance="10" guidetolerance="10" id="namedview3169" inkscape:current-layer="svg2" inkscape:cx="16" inkscape:cy="16" inkscape:pageopacity="0" inkscape:pageshadow="2" inkscape:window-height="480" inkscape:window-maximized="0" inkscape:window-width="640" inkscape:window-x="53" inkscape:window-y="24" inkscape:zoom="7.375" objecttolerance="10" pagecolor="#ffffff" showgrid="false">
	</sodipodi:namedview>
<path d="M15.4,5.7c-4.1,0-6.8-2.4-11-1.4V3.6c0,0,0-0.7-0.7-0.7S3.1,3.6,3.1,3.6v16.7l0,0c0,0.3,0.3,0.6,0.7,0.6s0.7-0.3,0.7-0.6
	l0,0l0,0l0,0l0,0v-3.7c4.1-1.4,6.9,1.4,11,1.4s5.6-1.4,5.6-1.4V4.3C21,4.3,19.6,5.7,15.4,5.7z"/>
</svg>
