<?xml version="1.0" encoding="utf-8"?>
<!-- Generator: Adobe Illustrator 27.0.0, SVG Export Plug-In . SVG Version: 6.00 Build 0)  -->
<svg version="1.1" id="_x32_" xmlns="http://www.w3.org/2000/svg" xmlns:xlink="http://www.w3.org/1999/xlink" x="0px" y="0px"
	 viewBox="0 0 24 24" style="enable-background:new 0 0 24 24;" xml:space="preserve">
<g>
	<path d="M6.5,12.6c0.7-0.4,1.4-0.7,2.3-0.7c0.1,0,0.2,0,0.3,0c0.3-1,0.8-2,1.5-2.7c-0.1-1.7-1.4-3-3-3c-1.7,0-3,1.5-3,3.2
		C4.6,10.9,5.4,12.1,6.5,12.6z"/>
	<rect x="7.3" y="3.5" width="0.7" height="1.9"/>
	<polygon points="6,5.8 5.1,4.1 4.5,4.5 5.4,6.2 	"/>
	<polygon points="2.6,6.8 4.1,7.8 4.5,7.2 2.9,6.2 	"/>
	<polygon points="3.8,9.2 2,9.2 2,9.9 3.8,9.9 	"/>
	<polygon points="2.6,12.3 2.9,12.9 4.5,11.9 4.1,11.3 	"/>
	<polygon points="12.3,6.2 12.7,6.8 11.1,7.8 10.8,7.2 	"/>
	<polygon points="10.7,4.5 10.2,4.1 9.3,5.8 9.8,6.2 	"/>
	<path d="M18.9,13.8C18.9,13.8,18.9,13.8,18.9,13.8c0-0.1,0-0.1,0-0.2c0-2.7-2-4.9-4.5-4.9c-2.3,0-4.3,1.9-4.5,4.4
		c-0.3-0.1-0.7-0.2-1-0.2c-1.9,0-3.5,1.7-3.5,3.8c0,2.1,1.6,3.8,3.5,3.8h10.1c1.7,0,3.1-1.5,3.1-3.4C22,15.3,20.6,13.8,18.9,13.8z"
		/>
</g>
</svg>
